<svg xmlns="http://www.w3.org/2000/svg" width="12.337" height="12.985" fill="none" overflow="visible" preserveAspectRatio="none" style="display:block" viewBox="0 0 12.337 12.985"><path fill="#7e7e7e" stroke="#4b4b4b" stroke-width="1.198" d="M.652 7.092q.022 0 .036.014a.05.05 0 0 1 .014.036v1.603l.001.01a1.62 1.62 0 0 0 .493 1.132 1.6 1.6 0 0 0 1.137.449h9.242l-1.032-1.024-.844-.836-.011-.017-.003-.02.002-.018.012-.017.003-.003.017-.011.018-.003q.01 0 .02.003l.016.011.002.001 1.947 1.948.002.002.01.015a.05.05 0 0 1 0 .04l-.01.015-.002.002-1.947 1.947a.05.05 0 0 1-.038.015.05.05 0 0 1-.037-.015.05.05 0 0 1-.014-.037q0-.021.013-.036l.844-.837 1.032-1.024H2.328a1.71 1.71 0 0 1-1.59-1.043 1.7 1.7 0 0 1-.126-.486l-.01-.168V7.142a.05.05 0 0 1 .015-.036.05.05 0 0 1 .035-.014Zm10.983-2.863a1.613 1.613 0 0 0-1.631-1.58H.763l1.032 1.025.84.835h.002q.015.015.015.037a.054.054 0 0 1-.052.053.05.05 0 0 1-.038-.016L.615 2.637v-.002l-.012-.016a.05.05 0 0 1 0-.039l.011-.016.001-.002L2.562.615h.002L2.58.602a.05.05 0 0 1 .04 0l.019.014a.05.05 0 0 1 0 .071l-.844.837L.763 2.55h9.246a1.71 1.71 0 0 1 1.725 1.696v1.598a.05.05 0 0 1-.05.05.05.05 0 0 1-.035-.014.05.05 0 0 1-.014-.036z"/></svg>
